solid OpenSCAD_Model
  facet normal 0 -1 0
    outer loop
      vertex -20 -7.94167 -0.964293
      vertex 20 -7.94167 0.964293
      vertex -20 -7.94167 0.964293
    endloop
  endfacet
  facet normal 0 -1 -0
    outer loop
      vertex 20 -7.94167 0.964293
      vertex -20 -7.94167 -0.964293
      vertex 20 -7.94167 -0.964293
    endloop
  endfacet
  facet normal 0 -0.970942 0.239316
    outer loop
      vertex -20 -7.94167 0.964293
      vertex 20 -7.48013 2.83684
      vertex -20 -7.48013 2.83684
    endloop
  endfacet
  facet normal 0 -0.970942 0.239316
    outer loop
      vertex 20 -7.48013 2.83684
      vertex -20 -7.94167 0.964293
      vertex 20 -7.94167 0.964293
    endloop
  endfacet
  facet normal 0 -0.885456 -0.464723
    outer loop
      vertex -20 -7 -3.75165
      vertex 20 -7.48013 -2.83684
      vertex -20 -7.48013 -2.83684
    endloop
  endfacet
  facet normal 0 -0.885456 -0.464723
    outer loop
      vertex 20 -7.48013 -2.83684
      vertex -20 -7 -3.75165
      vertex 20 -7 -3.75165
    endloop
  endfacet
  facet normal 0 0.970942 0.239316
    outer loop
      vertex -7.94167 7.94167 0.964293
      vertex -20 7.48013 2.83684
      vertex -7.48013 7.48013 2.83684
    endloop
  endfacet
  facet normal 0 0.970942 0.239316
    outer loop
      vertex -20 7.48013 2.83684
      vertex -7.94167 7.94167 0.964293
      vertex -20 7.94167 0.964293
    endloop
  endfacet
  facet normal -0 0.970942 0.239316
    outer loop
      vertex 7.94167 7.94167 0.964293
      vertex 20 7.48013 2.83684
      vertex 20 7.94167 0.964293
    endloop
  endfacet
  facet normal 0 0.970942 0.239316
    outer loop
      vertex 20 7.48013 2.83684
      vertex 7.94167 7.94167 0.964293
      vertex 7.48013 7.48013 2.83684
    endloop
  endfacet
  facet normal 0 -0.885456 0.464723
    outer loop
      vertex -20 -7.48013 2.83684
      vertex 20 -6.86966 4
      vertex -20 -6.86966 4
    endloop
  endfacet
  facet normal 0 -0.885456 0.464723
    outer loop
      vertex 20 -6.86966 4
      vertex -20 -7.48013 2.83684
      vertex 20 -7.48013 2.83684
    endloop
  endfacet
  facet normal 1 0 0
    outer loop
      vertex 20 -5.45089 2.25783
      vertex 20 -7.48013 2.83684
      vertex 20 -5.78663 1.15103
    endloop
  endfacet
  facet normal 1 -0 0
    outer loop
      vertex 20 -7.48013 2.83684
      vertex 20 -5.45089 2.25783
      vertex 20 -6.86966 4
    endloop
  endfacet
  facet normal 1 0 0
    outer loop
      vertex 20 -4.90567 3.27786
      vertex 20 -6.86966 4
      vertex 20 -5.45089 2.25783
    endloop
  endfacet
  facet normal 1 -0 0
    outer loop
      vertex 20 -6.86966 4
      vertex 20 -4.90567 3.27786
      vertex 20 -4.31303 4
    endloop
  endfacet
  facet normal 1 0 0
    outer loop
      vertex 20 7.94167 0.964293
      vertex 20 5.78663 1.15103
      vertex 20 5.9 -8.88178e-15
    endloop
  endfacet
  facet normal 1 0 0
    outer loop
      vertex 20 7.48013 2.83684
      vertex 20 5.45089 2.25783
      vertex 20 5.78663 1.15103
    endloop
  endfacet
  facet normal 1 0 0
    outer loop
      vertex 20 6.86966 4
      vertex 20 4.90567 3.27786
      vertex 20 5.45089 2.25783
    endloop
  endfacet
  facet normal 1 0 -0
    outer loop
      vertex 20 4.90567 3.27786
      vertex 20 6.86966 4
      vertex 20 4.31303 4
    endloop
  endfacet
  facet normal 1 -0 0
    outer loop
      vertex 20 5.78663 1.15103
      vertex 20 7.94167 0.964293
      vertex 20 7.48013 2.83684
    endloop
  endfacet
  facet normal 1 0 0
    outer loop
      vertex 20 7.94167 0.964293
      vertex 20 5.9 -8.88178e-15
      vertex 20 7.94167 -0.964293
    endloop
  endfacet
  facet normal 1 0 0
    outer loop
      vertex 20 5.78663 -1.15103
      vertex 20 7.94167 -0.964293
      vertex 20 5.9 -8.88178e-15
    endloop
  endfacet
  facet normal 1 0 0
    outer loop
      vertex 20 5.45089 2.25783
      vertex 20 7.48013 2.83684
      vertex 20 6.86966 4
    endloop
  endfacet
  facet normal 1 0 0
    outer loop
      vertex 20 7.94167 -0.964293
      vertex 20 5.78663 -1.15103
      vertex 20 7.48013 -2.83684
    endloop
  endfacet
  facet normal 1 -0 0
    outer loop
      vertex 20 5.45089 -2.25783
      vertex 20 7.48013 -2.83684
      vertex 20 5.78663 -1.15103
    endloop
  endfacet
  facet normal 1 0 0
    outer loop
      vertex 20 7.48013 -2.83684
      vertex 20 5.45089 -2.25783
      vertex 20 7 -3.75165
    endloop
  endfacet
  facet normal 1 -0 0
    outer loop
      vertex 20 4.90567 -3.27786
      vertex 20 7 -3.75165
      vertex 20 5.45089 -2.25783
    endloop
  endfacet
  facet normal 1 0 0
    outer loop
      vertex 20 4.17193 -4.17193
      vertex 20 7 -3.75165
      vertex 20 4.90567 -3.27786
    endloop
  endfacet
  facet normal 1 0 0
    outer loop
      vertex 20 7 -3.75165
      vertex 20 4.17193 -4.17193
      vertex 20 7 -8
    endloop
  endfacet
  facet normal 1 -0 0
    outer loop
      vertex 20 3.27786 -4.90567
      vertex 20 7 -8
      vertex 20 4.17193 -4.17193
    endloop
  endfacet
  facet normal 1 -0 0
    outer loop
      vertex 20 2.25783 -5.45089
      vertex 20 7 -8
      vertex 20 3.27786 -4.90567
    endloop
  endfacet
  facet normal 1 -0 0
    outer loop
      vertex 20 1.15103 -5.78663
      vertex 20 7 -8
      vertex 20 2.25783 -5.45089
    endloop
  endfacet
  facet normal 1 -0 0
    outer loop
      vertex 20 -4.89859e-15 -5.9
      vertex 20 7 -8
      vertex 20 1.15103 -5.78663
    endloop
  endfacet
  facet normal 1 0 0
    outer loop
      vertex 20 -7 -8
      vertex 20 -4.89859e-15 -5.9
      vertex 20 -1.15103 -5.78663
    endloop
  endfacet
  facet normal 1 0 0
    outer loop
      vertex 20 -7.94167 0.964293
      vertex 20 -5.78663 1.15103
      vertex 20 -7.48013 2.83684
    endloop
  endfacet
  facet normal 1 0 0
    outer loop
      vertex 20 -5.78663 1.15103
      vertex 20 -7.94167 0.964293
      vertex 20 -5.9 -8.88178e-15
    endloop
  endfacet
  facet normal 1 0 0
    outer loop
      vertex 20 -7.48013 -2.83684
      vertex 20 -5.45089 -2.25783
      vertex 20 -5.78663 -1.15103
    endloop
  endfacet
  facet normal 1 0 0
    outer loop
      vertex 20 -7 -3.75165
      vertex 20 -4.90567 -3.27786
      vertex 20 -5.45089 -2.25783
    endloop
  endfacet
  facet normal 1 -0 0
    outer loop
      vertex 20 -7 -3.75165
      vertex 20 -4.17193 -4.17193
      vertex 20 -4.90567 -3.27786
    endloop
  endfacet
  facet normal 1 0 0
    outer loop
      vertex 20 -7 -8
      vertex 20 -4.17193 -4.17193
      vertex 20 -7 -3.75165
    endloop
  endfacet
  facet normal 1 0 0
    outer loop
      vertex 20 -4.17193 -4.17193
      vertex 20 -7 -8
      vertex 20 -3.27786 -4.90567
    endloop
  endfacet
  facet normal 1 0 0
    outer loop
      vertex 20 -4.89859e-15 -5.9
      vertex 20 -7 -8
      vertex 20 7 -8
    endloop
  endfacet
  facet normal 1 0 0
    outer loop
      vertex 20 -2.25783 -5.45089
      vertex 20 -7 -8
      vertex 20 -1.15103 -5.78663
    endloop
  endfacet
  facet normal 1 0 0
    outer loop
      vertex 20 -3.27786 -4.90567
      vertex 20 -7 -8
      vertex 20 -2.25783 -5.45089
    endloop
  endfacet
  facet normal 1 0 0
    outer loop
      vertex 20 -7.94167 -0.964293
      vertex 20 -5.9 -8.88178e-15
      vertex 20 -7.94167 0.964293
    endloop
  endfacet
  facet normal 1 0 0
    outer loop
      vertex 20 -5.9 -8.88178e-15
      vertex 20 -7.94167 -0.964293
      vertex 20 -5.78663 -1.15103
    endloop
  endfacet
  facet normal 1 0 -0
    outer loop
      vertex 20 -7.48013 -2.83684
      vertex 20 -5.78663 -1.15103
      vertex 20 -7.94167 -0.964293
    endloop
  endfacet
  facet normal 1 0 0
    outer loop
      vertex 20 -5.45089 -2.25783
      vertex 20 -7.48013 -2.83684
      vertex 20 -7 -3.75165
    endloop
  endfacet
  facet normal 0 -0.970942 -0.239316
    outer loop
      vertex -20 -7.48013 -2.83684
      vertex 20 -7.94167 -0.964293
      vertex -20 -7.94167 -0.964293
    endloop
  endfacet
  facet normal 0 -0.970942 -0.239316
    outer loop
      vertex 20 -7.94167 -0.964293
      vertex -20 -7.48013 -2.83684
      vertex 20 -7.48013 -2.83684
    endloop
  endfacet
  facet normal -1 0 0
    outer loop
      vertex -20 4.17193 -4.17193
      vertex -20 7 -3.75165
      vertex -20 7 -8
    endloop
  endfacet
  facet normal -1 0 0
    outer loop
      vertex -20 7 -3.75165
      vertex -20 5.9 -1.45446e-31
      vertex -20 6.86966 4
    endloop
  endfacet
  facet normal -1 0 0
    outer loop
      vertex -20 7 -3.75165
      vertex -20 5.78663 -1.15103
      vertex -20 5.9 -1.45446e-31
    endloop
  endfacet
  facet normal -1 0 0
    outer loop
      vertex -20 7 -3.75165
      vertex -20 5.45089 -2.25783
      vertex -20 5.78663 -1.15103
    endloop
  endfacet
  facet normal -1 0 0
    outer loop
      vertex -20 7 -3.75165
      vertex -20 4.90567 -3.27786
      vertex -20 5.45089 -2.25783
    endloop
  endfacet
  facet normal -1 -0 0
    outer loop
      vertex -20 7 -3.75165
      vertex -20 4.17193 -4.17193
      vertex -20 4.90567 -3.27786
    endloop
  endfacet
  facet normal -1 0 0
    outer loop
      vertex -20 7 -8
      vertex -20 3.27786 -4.90567
      vertex -20 4.17193 -4.17193
    endloop
  endfacet
  facet normal -1 0 0
    outer loop
      vertex -20 7 -8
      vertex -20 2.25783 -5.45089
      vertex -20 3.27786 -4.90567
    endloop
  endfacet
  facet normal -1 0 0
    outer loop
      vertex -20 7 -8
      vertex -20 1.15103 -5.78663
      vertex -20 2.25783 -5.45089
    endloop
  endfacet
  facet normal -1 0 0
    outer loop
      vertex -20 7 -8
      vertex -20 0 -5.9
      vertex -20 1.15103 -5.78663
    endloop
  endfacet
  facet normal -1 0 0
    outer loop
      vertex -20 -7 -8
      vertex -20 0 -5.9
      vertex -20 7 -8
    endloop
  endfacet
  facet normal -1 0 0
    outer loop
      vertex -20 -7.94167 -0.964293
      vertex -20 -5.9 1.45446e-31
      vertex -20 -5.78663 -1.15103
    endloop
  endfacet
  facet normal -1 -0 0
    outer loop
      vertex -20 0 -5.9
      vertex -20 -7 -8
      vertex -20 -1.15103 -5.78663
    endloop
  endfacet
  facet normal -1 0 0
    outer loop
      vertex -20 -7 -8
      vertex -20 -2.25783 -5.45089
      vertex -20 -1.15103 -5.78663
    endloop
  endfacet
  facet normal -1 0 0
    outer loop
      vertex -20 -7 -8
      vertex -20 -3.27786 -4.90567
      vertex -20 -2.25783 -5.45089
    endloop
  endfacet
  facet normal -1 0 0
    outer loop
      vertex -20 -7 -8
      vertex -20 -4.17193 -4.17193
      vertex -20 -3.27786 -4.90567
    endloop
  endfacet
  facet normal -1 0 0
    outer loop
      vertex -20 -7 -3.75165
      vertex -20 -4.17193 -4.17193
      vertex -20 -7 -8
    endloop
  endfacet
  facet normal -1 0 0
    outer loop
      vertex -20 -4.17193 -4.17193
      vertex -20 -7 -3.75165
      vertex -20 -4.90567 -3.27786
    endloop
  endfacet
  facet normal -1 -0 0
    outer loop
      vertex -20 -4.90567 -3.27786
      vertex -20 -7 -3.75165
      vertex -20 -5.45089 -2.25783
    endloop
  endfacet
  facet normal -1 0 0
    outer loop
      vertex -20 -7.48013 -2.83684
      vertex -20 -5.45089 -2.25783
      vertex -20 -7 -3.75165
    endloop
  endfacet
  facet normal -1 -0 0
    outer loop
      vertex -20 -5.45089 -2.25783
      vertex -20 -7.48013 -2.83684
      vertex -20 -5.78663 -1.15103
    endloop
  endfacet
  facet normal -1 -0 0
    outer loop
      vertex -20 -5.78663 -1.15103
      vertex -20 -7.48013 -2.83684
      vertex -20 -7.94167 -0.964293
    endloop
  endfacet
  facet normal -1 -0 0
    outer loop
      vertex -20 -5.9 1.45446e-31
      vertex -20 -7.94167 -0.964293
      vertex -20 -7.94167 0.964293
    endloop
  endfacet
  facet normal -1 0 0
    outer loop
      vertex -20 -5.9 1.45446e-31
      vertex -20 -7.94167 0.964293
      vertex -20 -7.48013 2.83684
    endloop
  endfacet
  facet normal -1 0 0
    outer loop
      vertex -20 -5.9 1.45446e-31
      vertex -20 -7.48013 2.83684
      vertex -20 -6.86966 4
    endloop
  endfacet
  facet normal -1 0 0
    outer loop
      vertex -20 7 -3.75165
      vertex -20 7.94167 -0.964293
      vertex -20 7.48013 -2.83684
    endloop
  endfacet
  facet normal -1 -0 0
    outer loop
      vertex -20 7.94167 -0.964293
      vertex -20 7 -3.75165
      vertex -20 7.94167 0.964293
    endloop
  endfacet
  facet normal -1 0 0
    outer loop
      vertex -20 6.86966 4
      vertex -20 7.94167 0.964293
      vertex -20 7 -3.75165
    endloop
  endfacet
  facet normal -1 0 0
    outer loop
      vertex -20 7.94167 0.964293
      vertex -20 6.86966 4
      vertex -20 7.48013 2.83684
    endloop
  endfacet
  facet normal -1 0 0
    outer loop
      vertex -20 5.78663 1.15103
      vertex -20 6.86966 4
      vertex -20 5.9 -1.45446e-31
    endloop
  endfacet
  facet normal -1 0 0
    outer loop
      vertex -20 5.45089 2.25783
      vertex -20 6.86966 4
      vertex -20 5.78663 1.15103
    endloop
  endfacet
  facet normal -1 0 0
    outer loop
      vertex -20 4.90567 3.27786
      vertex -20 6.86966 4
      vertex -20 5.45089 2.25783
    endloop
  endfacet
  facet normal -1 -0 0
    outer loop
      vertex -20 6.86966 4
      vertex -20 4.90567 3.27786
      vertex -20 4.31303 4
    endloop
  endfacet
  facet normal -1 0 0
    outer loop
      vertex -20 -4.90567 3.27786
      vertex -20 -6.86966 4
      vertex -20 -4.31303 4
    endloop
  endfacet
  facet normal -1 0 0
    outer loop
      vertex -20 -5.45089 2.25783
      vertex -20 -6.86966 4
      vertex -20 -4.90567 3.27786
    endloop
  endfacet
  facet normal -1 0 0
    outer loop
      vertex -20 -5.78663 1.15103
      vertex -20 -6.86966 4
      vertex -20 -5.45089 2.25783
    endloop
  endfacet
  facet normal -1 0 0
    outer loop
      vertex -20 -6.86966 4
      vertex -20 -5.78663 1.15103
      vertex -20 -5.9 1.45446e-31
    endloop
  endfacet
  facet normal -0 0.885456 0.464723
    outer loop
      vertex 7.48013 7.48013 2.83684
      vertex 20 6.86966 4
      vertex 20 7.48013 2.83684
    endloop
  endfacet
  facet normal 0 0.885456 0.464723
    outer loop
      vertex 20 6.86966 4
      vertex 7.48013 7.48013 2.83684
      vertex 6.86966 6.86966 4
    endloop
  endfacet
  facet normal 0 0.885456 0.464723
    outer loop
      vertex -7.48013 7.48013 2.83684
      vertex -20 6.86966 4
      vertex -6.86966 6.86966 4
    endloop
  endfacet
  facet normal 0 0.885456 0.464723
    outer loop
      vertex -20 6.86966 4
      vertex -7.48013 7.48013 2.83684
      vertex -20 7.48013 2.83684
    endloop
  endfacet
  facet normal 0 0.885456 -0.464723
    outer loop
      vertex -20 7 -3.75165
      vertex -7.48013 7.48013 -2.83684
      vertex -7 7 -3.75165
    endloop
  endfacet
  facet normal 0 0.885456 -0.464723
    outer loop
      vertex -7.48013 7.48013 -2.83684
      vertex -20 7 -3.75165
      vertex -20 7.48013 -2.83684
    endloop
  endfacet
  facet normal 0 0.885456 -0.464723
    outer loop
      vertex 20 7 -3.75165
      vertex 7.48013 7.48013 -2.83684
      vertex 20 7.48013 -2.83684
    endloop
  endfacet
  facet normal 0 0.885456 -0.464723
    outer loop
      vertex 7.48013 7.48013 -2.83684
      vertex 20 7 -3.75165
      vertex 7 7 -3.75165
    endloop
  endfacet
  facet normal 0 1 -0
    outer loop
      vertex 20 7.94167 -0.964293
      vertex 7.94167 7.94167 0.964293
      vertex 20 7.94167 0.964293
    endloop
  endfacet
  facet normal 0 1 0
    outer loop
      vertex 7.94167 7.94167 0.964293
      vertex 20 7.94167 -0.964293
      vertex 7.94167 7.94167 -0.964293
    endloop
  endfacet
  facet normal 0 1 -0
    outer loop
      vertex -7.94167 7.94167 -0.964293
      vertex -20 7.94167 0.964293
      vertex -7.94167 7.94167 0.964293
    endloop
  endfacet
  facet normal 0 1 0
    outer loop
      vertex -20 7.94167 0.964293
      vertex -7.94167 7.94167 -0.964293
      vertex -20 7.94167 -0.964293
    endloop
  endfacet
  facet normal 0 0.970942 -0.239316
    outer loop
      vertex 20 7.48013 -2.83684
      vertex 7.94167 7.94167 -0.964293
      vertex 20 7.94167 -0.964293
    endloop
  endfacet
  facet normal 0 0.970942 -0.239316
    outer loop
      vertex 7.94167 7.94167 -0.964293
      vertex 20 7.48013 -2.83684
      vertex 7.48013 7.48013 -2.83684
    endloop
  endfacet
  facet normal 0 0.970942 -0.239316
    outer loop
      vertex -20 7.48013 -2.83684
      vertex -7.94167 7.94167 -0.964293
      vertex -7.48013 7.48013 -2.83684
    endloop
  endfacet
  facet normal 0 0.970942 -0.239316
    outer loop
      vertex -7.94167 7.94167 -0.964293
      vertex -20 7.48013 -2.83684
      vertex -20 7.94167 -0.964293
    endloop
  endfacet
  facet normal 0 0 -1
    outer loop
      vertex 20 -7 -8
      vertex 7 7 -8
      vertex 20 7 -8
    endloop
  endfacet
  facet normal 0 0 -1
    outer loop
      vertex 20 -7 -8
      vertex 0 0 -8
      vertex 7 7 -8
    endloop
  endfacet
  facet normal 0 0 -1
    outer loop
      vertex -20 -7 -8
      vertex 0 0 -8
      vertex 20 -7 -8
    endloop
  endfacet
  facet normal 0 0 -1
    outer loop
      vertex -20 -7 -8
      vertex -7 7 -8
      vertex 0 0 -8
    endloop
  endfacet
  facet normal -0 0 -1
    outer loop
      vertex -7 7 -8
      vertex -20 -7 -8
      vertex -20 7 -8
    endloop
  endfacet
  facet normal 0 1 -0
    outer loop
      vertex 20 7 -8
      vertex 7 7 -3.75165
      vertex 20 7 -3.75165
    endloop
  endfacet
  facet normal 0 1 0
    outer loop
      vertex 7 7 -3.75165
      vertex 20 7 -8
      vertex 7 7 -8
    endloop
  endfacet
  facet normal 0 1 -0
    outer loop
      vertex -7 7 -8
      vertex -20 7 -3.75165
      vertex -7 7 -3.75165
    endloop
  endfacet
  facet normal 0 1 0
    outer loop
      vertex -20 7 -3.75165
      vertex -7 7 -8
      vertex -20 7 -8
    endloop
  endfacet
  facet normal 0 -1 0
    outer loop
      vertex -20 -7 -8
      vertex 20 -7 -3.75165
      vertex -20 -7 -3.75165
    endloop
  endfacet
  facet normal 0 -1 -0
    outer loop
      vertex 20 -7 -3.75165
      vertex -20 -7 -8
      vertex 20 -7 -8
    endloop
  endfacet
  facet normal 0 0.773011 -0.634393
    outer loop
      vertex 20 -4.90567 3.27786
      vertex -20 -4.31303 4
      vertex 20 -4.31303 4
    endloop
  endfacet
  facet normal 0 0.773011 -0.634393
    outer loop
      vertex -20 -4.31303 4
      vertex 20 -4.90567 3.27786
      vertex -20 -4.90567 3.27786
    endloop
  endfacet
  facet normal -0 0.290285 0.95694
    outer loop
      vertex -20 -1.15103 -5.78663
      vertex 20 -2.25783 -5.45089
      vertex 20 -1.15103 -5.78663
    endloop
  endfacet
  facet normal 0 0.290285 0.95694
    outer loop
      vertex 20 -2.25783 -5.45089
      vertex -20 -1.15103 -5.78663
      vertex -20 -2.25783 -5.45089
    endloop
  endfacet
  facet normal 0 -0.95694 0.290285
    outer loop
      vertex -20 5.45089 -2.25783
      vertex -5.78663 5.78663 -1.15103
      vertex -20 5.78663 -1.15103
    endloop
  endfacet
  facet normal 0 -0.95694 0.290285
    outer loop
      vertex -5.78663 5.78663 -1.15103
      vertex -20 5.45089 -2.25783
      vertex -5.45089 5.45089 -2.25783
    endloop
  endfacet
  facet normal 0 -0.95694 0.290285
    outer loop
      vertex 20 5.45089 -2.25783
      vertex 5.78663 5.78663 -1.15103
      vertex 5.45089 5.45089 -2.25783
    endloop
  endfacet
  facet normal 0 -0.95694 0.290285
    outer loop
      vertex 5.78663 5.78663 -1.15103
      vertex 20 5.45089 -2.25783
      vertex 20 5.78663 -1.15103
    endloop
  endfacet
  facet normal 0 0.95694 0.290285
    outer loop
      vertex 20 -5.45089 -2.25783
      vertex -20 -5.78663 -1.15103
      vertex 20 -5.78663 -1.15103
    endloop
  endfacet
  facet normal 0 0.95694 0.290285
    outer loop
      vertex -20 -5.78663 -1.15103
      vertex 20 -5.45089 -2.25783
      vertex -20 -5.45089 -2.25783
    endloop
  endfacet
  facet normal -0 0.471397 0.881921
    outer loop
      vertex -20 -2.25783 -5.45089
      vertex 20 -3.27786 -4.90567
      vertex 20 -2.25783 -5.45089
    endloop
  endfacet
  facet normal 0 0.471397 0.881921
    outer loop
      vertex 20 -3.27786 -4.90567
      vertex -20 -2.25783 -5.45089
      vertex -20 -3.27786 -4.90567
    endloop
  endfacet
  facet normal 0 0.881921 -0.471397
    outer loop
      vertex 20 -5.45089 2.25783
      vertex -20 -4.90567 3.27786
      vertex 20 -4.90567 3.27786
    endloop
  endfacet
  facet normal 0 0.881921 -0.471397
    outer loop
      vertex -20 -4.90567 3.27786
      vertex 20 -5.45089 2.25783
      vertex -20 -5.45089 2.25783
    endloop
  endfacet
  facet normal 0 0.995185 -0.0980174
    outer loop
      vertex 20 -5.78663 1.15103
      vertex -20 -5.9 1.45446e-31
      vertex -20 -5.78663 1.15103
    endloop
  endfacet
  facet normal -2.17642e-17 0.995185 -0.0980174
    outer loop
      vertex -20 -5.9 1.45446e-31
      vertex 20 -5.78663 1.15103
      vertex 20 -5.9 -8.88178e-15
    endloop
  endfacet
  facet normal 1.20037e-17 0.0980174 0.995185
    outer loop
      vertex -20 0 -5.9
      vertex 20 -1.15103 -5.78663
      vertex 20 -4.89859e-15 -5.9
    endloop
  endfacet
  facet normal 0 0.0980174 0.995185
    outer loop
      vertex 20 -1.15103 -5.78663
      vertex -20 0 -5.9
      vertex -20 -1.15103 -5.78663
    endloop
  endfacet
  facet normal -0 0.634393 0.77301
    outer loop
      vertex -20 -3.27786 -4.90567
      vertex 20 -4.17193 -4.17193
      vertex 20 -3.27786 -4.90567
    endloop
  endfacet
  facet normal 0 0.634393 0.77301
    outer loop
      vertex 20 -4.17193 -4.17193
      vertex -20 -3.27786 -4.90567
      vertex -20 -4.17193 -4.17193
    endloop
  endfacet
  facet normal 0 0.881921 0.471397
    outer loop
      vertex 20 -4.90567 -3.27786
      vertex -20 -5.45089 -2.25783
      vertex 20 -5.45089 -2.25783
    endloop
  endfacet
  facet normal 0 0.881921 0.471397
    outer loop
      vertex -20 -5.45089 -2.25783
      vertex 20 -4.90567 -3.27786
      vertex -20 -4.90567 -3.27786
    endloop
  endfacet
  facet normal 2.15978e-17 0.995185 0.0980174
    outer loop
      vertex 20 -5.78663 -1.15103
      vertex -20 -5.9 1.45446e-31
      vertex 20 -5.9 -8.88178e-15
    endloop
  endfacet
  facet normal 0 0.995185 0.0980174
    outer loop
      vertex -20 -5.9 1.45446e-31
      vertex 20 -5.78663 -1.15103
      vertex -20 -5.78663 -1.15103
    endloop
  endfacet
  facet normal 0 0.77301 0.634393
    outer loop
      vertex 20 -4.17193 -4.17193
      vertex -20 -4.90567 -3.27786
      vertex 20 -4.90567 -3.27786
    endloop
  endfacet
  facet normal 0 0.77301 0.634393
    outer loop
      vertex -20 -4.90567 -3.27786
      vertex 20 -4.17193 -4.17193
      vertex -20 -4.17193 -4.17193
    endloop
  endfacet
  facet normal 0 -0.995185 -0.0980174
    outer loop
      vertex 5.9 5.9 -5.75096e-15
      vertex 20 5.78663 1.15103
      vertex 5.78663 5.78663 1.15103
    endloop
  endfacet
  facet normal -2.04234e-17 -0.995185 -0.0980174
    outer loop
      vertex 20 5.78663 1.15103
      vertex 5.9 5.9 -5.75096e-15
      vertex 20 5.9 -8.88178e-15
    endloop
  endfacet
  facet normal -2.17642e-17 -0.995185 -0.0980174
    outer loop
      vertex -5.9 5.9 -3.13083e-15
      vertex -20 5.78663 1.15103
      vertex -20 5.9 -1.45446e-31
    endloop
  endfacet
  facet normal 0 -0.995185 -0.0980174
    outer loop
      vertex -20 5.78663 1.15103
      vertex -5.9 5.9 -3.13083e-15
      vertex -5.78663 5.78663 1.15103
    endloop
  endfacet
  facet normal -0 -0.95694 -0.290285
    outer loop
      vertex -5.78663 5.78663 1.15103
      vertex -20 5.45089 2.25783
      vertex -20 5.78663 1.15103
    endloop
  endfacet
  facet normal 0 -0.95694 -0.290285
    outer loop
      vertex -20 5.45089 2.25783
      vertex -5.78663 5.78663 1.15103
      vertex -5.45089 5.45089 2.25783
    endloop
  endfacet
  facet normal 0 -0.95694 -0.290285
    outer loop
      vertex 5.78663 5.78663 1.15103
      vertex 20 5.45089 2.25783
      vertex 5.45089 5.45089 2.25783
    endloop
  endfacet
  facet normal 0 -0.95694 -0.290285
    outer loop
      vertex 20 5.45089 2.25783
      vertex 5.78663 5.78663 1.15103
      vertex 20 5.78663 1.15103
    endloop
  endfacet
  facet normal -0 -0.881921 -0.471397
    outer loop
      vertex -5.45089 5.45089 2.25783
      vertex -20 4.90567 3.27786
      vertex -20 5.45089 2.25783
    endloop
  endfacet
  facet normal 0 -0.881921 -0.471397
    outer loop
      vertex -20 4.90567 3.27786
      vertex -5.45089 5.45089 2.25783
      vertex -4.90567 4.90567 3.27786
    endloop
  endfacet
  facet normal 0 -0.881921 -0.471397
    outer loop
      vertex 5.45089 5.45089 2.25783
      vertex 20 4.90567 3.27786
      vertex 4.90567 4.90567 3.27786
    endloop
  endfacet
  facet normal 0 -0.881921 -0.471397
    outer loop
      vertex 20 4.90567 3.27786
      vertex 5.45089 5.45089 2.25783
      vertex 20 5.45089 2.25783
    endloop
  endfacet
  facet normal 0 -0.995185 0.0980174
    outer loop
      vertex 20 5.78663 -1.15103
      vertex 5.9 5.9 -5.75096e-15
      vertex 5.78663 5.78663 -1.15103
    endloop
  endfacet
  facet normal 2.17642e-17 -0.995185 0.0980174
    outer loop
      vertex 5.9 5.9 -5.75096e-15
      vertex 20 5.78663 -1.15103
      vertex 20 5.9 -8.88178e-15
    endloop
  endfacet
  facet normal 2.21254e-17 -0.995185 0.0980174
    outer loop
      vertex -20 5.78663 -1.15103
      vertex -5.9 5.9 -3.13083e-15
      vertex -20 5.9 -1.45446e-31
    endloop
  endfacet
  facet normal 0 -0.995185 0.0980174
    outer loop
      vertex -5.9 5.9 -3.13083e-15
      vertex -20 5.78663 -1.15103
      vertex -5.78663 5.78663 -1.15103
    endloop
  endfacet
  facet normal 0 -0.77301 0.634393
    outer loop
      vertex -20 4.17193 -4.17193
      vertex -4.90567 4.90567 -3.27786
      vertex -20 4.90567 -3.27786
    endloop
  endfacet
  facet normal 0 -0.77301 0.634393
    outer loop
      vertex -4.90567 4.90567 -3.27786
      vertex -20 4.17193 -4.17193
      vertex -4.17193 4.17193 -4.17193
    endloop
  endfacet
  facet normal 0 -0.77301 0.634393
    outer loop
      vertex 20 4.17193 -4.17193
      vertex 4.90567 4.90567 -3.27786
      vertex 4.17193 4.17193 -4.17193
    endloop
  endfacet
  facet normal 0 -0.77301 0.634393
    outer loop
      vertex 4.90567 4.90567 -3.27786
      vertex 20 4.17193 -4.17193
      vertex 20 4.90567 -3.27786
    endloop
  endfacet
  facet normal 0 -0.471397 0.881921
    outer loop
      vertex 3.27786 3.27786 -4.90567
      vertex 20 2.25783 -5.45089
      vertex 20 3.27786 -4.90567
    endloop
  endfacet
  facet normal 0 -0.471397 0.881921
    outer loop
      vertex 20 2.25783 -5.45089
      vertex 3.27786 3.27786 -4.90567
      vertex 2.25783 2.25783 -5.45089
    endloop
  endfacet
  facet normal 0 -0.471397 0.881921
    outer loop
      vertex -20 2.25783 -5.45089
      vertex -3.27786 3.27786 -4.90567
      vertex -20 3.27786 -4.90567
    endloop
  endfacet
  facet normal 0 -0.471397 0.881921
    outer loop
      vertex -3.27786 3.27786 -4.90567
      vertex -20 2.25783 -5.45089
      vertex -2.25783 2.25783 -5.45089
    endloop
  endfacet
  facet normal 0 -0.0980174 0.995185
    outer loop
      vertex 1.15103 1.15103 -5.78663
      vertex 20 -4.89859e-15 -5.9
      vertex 20 1.15103 -5.78663
    endloop
  endfacet
  facet normal -2.40073e-17 -0.0980174 0.995185
    outer loop
      vertex 0 0 -5.9
      vertex 20 -4.89859e-15 -5.9
      vertex 1.15103 1.15103 -5.78663
    endloop
  endfacet
  facet normal 0 -0.0980174 0.995185
    outer loop
      vertex -20 0 -5.9
      vertex -1.15103 1.15103 -5.78663
      vertex -20 1.15103 -5.78663
    endloop
  endfacet
  facet normal 0 0 1
    outer loop
      vertex 0 0 -5.9
      vertex -20 0 -5.9
      vertex 20 -4.89859e-15 -5.9
    endloop
  endfacet
  facet normal 0 -0.0980174 0.995185
    outer loop
      vertex -1.15103 1.15103 -5.78663
      vertex -20 0 -5.9
      vertex 0 0 -5.9
    endloop
  endfacet
  facet normal 0 -0.634393 0.77301
    outer loop
      vertex -20 3.27786 -4.90567
      vertex -4.17193 4.17193 -4.17193
      vertex -20 4.17193 -4.17193
    endloop
  endfacet
  facet normal 0 -0.634393 0.77301
    outer loop
      vertex -4.17193 4.17193 -4.17193
      vertex -20 3.27786 -4.90567
      vertex -3.27786 3.27786 -4.90567
    endloop
  endfacet
  facet normal 0 -0.634393 0.77301
    outer loop
      vertex 4.17193 4.17193 -4.17193
      vertex 20 3.27786 -4.90567
      vertex 20 4.17193 -4.17193
    endloop
  endfacet
  facet normal 0 -0.634393 0.77301
    outer loop
      vertex 20 3.27786 -4.90567
      vertex 4.17193 4.17193 -4.17193
      vertex 3.27786 3.27786 -4.90567
    endloop
  endfacet
  facet normal 0 0.95694 -0.290285
    outer loop
      vertex 20 -5.78663 1.15103
      vertex -20 -5.45089 2.25783
      vertex 20 -5.45089 2.25783
    endloop
  endfacet
  facet normal 0 0.95694 -0.290285
    outer loop
      vertex -20 -5.45089 2.25783
      vertex 20 -5.78663 1.15103
      vertex -20 -5.78663 1.15103
    endloop
  endfacet
  facet normal -0 -0.773011 -0.634393
    outer loop
      vertex -4.90567 4.90567 3.27786
      vertex -20 4.31303 4
      vertex -20 4.90567 3.27786
    endloop
  endfacet
  facet normal 0 -0.773011 -0.634393
    outer loop
      vertex -20 4.31303 4
      vertex -4.90567 4.90567 3.27786
      vertex -4.31303 4.31303 4
    endloop
  endfacet
  facet normal 0 -0.773011 -0.634393
    outer loop
      vertex 4.90567 4.90567 3.27786
      vertex 20 4.31303 4
      vertex 4.31303 4.31303 4
    endloop
  endfacet
  facet normal 0 -0.773011 -0.634393
    outer loop
      vertex 20 4.31303 4
      vertex 4.90567 4.90567 3.27786
      vertex 20 4.90567 3.27786
    endloop
  endfacet
  facet normal 0 -0.881921 0.471397
    outer loop
      vertex -20 4.90567 -3.27786
      vertex -5.45089 5.45089 -2.25783
      vertex -20 5.45089 -2.25783
    endloop
  endfacet
  facet normal 0 -0.881921 0.471397
    outer loop
      vertex -5.45089 5.45089 -2.25783
      vertex -20 4.90567 -3.27786
      vertex -4.90567 4.90567 -3.27786
    endloop
  endfacet
  facet normal 0 -0.881921 0.471397
    outer loop
      vertex 20 4.90567 -3.27786
      vertex 5.45089 5.45089 -2.25783
      vertex 4.90567 4.90567 -3.27786
    endloop
  endfacet
  facet normal 0 -0.881921 0.471397
    outer loop
      vertex 5.45089 5.45089 -2.25783
      vertex 20 4.90567 -3.27786
      vertex 20 5.45089 -2.25783
    endloop
  endfacet
  facet normal 0 -0.290285 0.95694
    outer loop
      vertex 2.25783 2.25783 -5.45089
      vertex 20 1.15103 -5.78663
      vertex 20 2.25783 -5.45089
    endloop
  endfacet
  facet normal 0 -0.290285 0.95694
    outer loop
      vertex 20 1.15103 -5.78663
      vertex 2.25783 2.25783 -5.45089
      vertex 1.15103 1.15103 -5.78663
    endloop
  endfacet
  facet normal 0 -0.290285 0.95694
    outer loop
      vertex -20 1.15103 -5.78663
      vertex -2.25783 2.25783 -5.45089
      vertex -20 2.25783 -5.45089
    endloop
  endfacet
  facet normal 0 -0.290285 0.95694
    outer loop
      vertex -2.25783 2.25783 -5.45089
      vertex -20 1.15103 -5.78663
      vertex -1.15103 1.15103 -5.78663
    endloop
  endfacet
  facet normal -0 0 1
    outer loop
      vertex 6.86966 6.86966 4
      vertex 20 4.31303 4
      vertex 20 6.86966 4
    endloop
  endfacet
  facet normal 0 0 1
    outer loop
      vertex 20 4.31303 4
      vertex 6.86966 6.86966 4
      vertex 4.31303 4.31303 4
    endloop
  endfacet
  facet normal 0 0 1
    outer loop
      vertex -20 4.31303 4
      vertex -6.86966 6.86966 4
      vertex -20 6.86966 4
    endloop
  endfacet
  facet normal 0 0 1
    outer loop
      vertex -6.86966 6.86966 4
      vertex -20 4.31303 4
      vertex -4.31303 4.31303 4
    endloop
  endfacet
  facet normal -0 0 1
    outer loop
      vertex -20 -4.31303 4
      vertex 20 -6.86966 4
      vertex 20 -4.31303 4
    endloop
  endfacet
  facet normal 0 0 1
    outer loop
      vertex 20 -6.86966 4
      vertex -20 -4.31303 4
      vertex -20 -6.86966 4
    endloop
  endfacet
  facet normal 0.707107 0.707107 0
    outer loop
      vertex -5.9 5.9 -1.31006e-15
      vertex -5.78663 5.78663 1.15103
      vertex -5.9 5.9 -3.13083e-15
    endloop
  endfacet
  facet normal -0.707107 -0.707107 0
    outer loop
      vertex -5.9 5.9 -3.13083e-15
      vertex -5.78663 5.78663 -1.15103
      vertex -5.9 5.9 -1.31006e-15
    endloop
  endfacet
  facet normal -0.707107 0.707107 0
    outer loop
      vertex 0 0 -5.9
      vertex 1.15103 1.15103 -5.78663
      vertex 1.60436e-31 1.60436e-31 -5.9
    endloop
  endfacet
  facet normal 0.707107 -0.707107 0
    outer loop
      vertex 5.9 5.9 -1.31006e-15
      vertex 5.78663 5.78663 -1.15103
      vertex 5.9 5.9 -5.75096e-15
    endloop
  endfacet
  facet normal -0.707107 0.707107 0
    outer loop
      vertex 5.9 5.9 -1.31006e-15
      vertex 5.9 5.9 -5.75096e-15
      vertex 5.78663 5.78663 1.15103
    endloop
  endfacet
  facet normal 1 -0 0
    outer loop
      vertex 7.94167 7.94167 0.964293
      vertex 7.94167 20 -0.964293
      vertex 7.94167 20 0.964293
    endloop
  endfacet
  facet normal 1 0 0
    outer loop
      vertex 7.94167 20 -0.964293
      vertex 7.94167 7.94167 0.964293
      vertex 7.94167 7.94167 -0.964293
    endloop
  endfacet
  facet normal -1 0 0
    outer loop
      vertex -7.94167 7.94167 -0.964293
      vertex -7.94167 20 0.964293
      vertex -7.94167 20 -0.964293
    endloop
  endfacet
  facet normal -1 -0 0
    outer loop
      vertex -7.94167 20 0.964293
      vertex -7.94167 7.94167 -0.964293
      vertex -7.94167 7.94167 0.964293
    endloop
  endfacet
  facet normal 0 1 0
    outer loop
      vertex 6.86966 20 4
      vertex 4.90567 20 3.27786
      vertex 4.31303 20 4
    endloop
  endfacet
  facet normal 0 1 0
    outer loop
      vertex 5.45089 20 2.25783
      vertex 6.86966 20 4
      vertex 7.48013 20 2.83684
    endloop
  endfacet
  facet normal 0 1 0
    outer loop
      vertex 6.86966 20 4
      vertex 5.45089 20 2.25783
      vertex 4.90567 20 3.27786
    endloop
  endfacet
  facet normal 0 1 0
    outer loop
      vertex 7.48013 20 2.83684
      vertex 5.78663 20 1.15103
      vertex 5.45089 20 2.25783
    endloop
  endfacet
  facet normal 0 1 0
    outer loop
      vertex 7.94167 20 0.964293
      vertex 5.78663 20 1.15103
      vertex 7.48013 20 2.83684
    endloop
  endfacet
  facet normal 0 1 0
    outer loop
      vertex 7.94167 20 0.964293
      vertex 5.9 20 -4.44089e-15
      vertex 5.78663 20 1.15103
    endloop
  endfacet
  facet normal 0 1 -0
    outer loop
      vertex 7.94167 20 -0.964293
      vertex 5.9 20 -4.44089e-15
      vertex 7.94167 20 0.964293
    endloop
  endfacet
  facet normal 0 1 0
    outer loop
      vertex 7.94167 20 -0.964293
      vertex 5.78663 20 -1.15103
      vertex 5.9 20 -4.44089e-15
    endloop
  endfacet
  facet normal 0 1 -0
    outer loop
      vertex 7.48013 20 -2.83684
      vertex 5.78663 20 -1.15103
      vertex 7.94167 20 -0.964293
    endloop
  endfacet
  facet normal 0 1 0
    outer loop
      vertex 5.78663 20 -1.15103
      vertex 7.48013 20 -2.83684
      vertex 5.45089 20 -2.25783
    endloop
  endfacet
  facet normal 0 1 -0
    outer loop
      vertex 7 20 -3.75165
      vertex 5.45089 20 -2.25783
      vertex 7.48013 20 -2.83684
    endloop
  endfacet
  facet normal 0 1 0
    outer loop
      vertex 5.45089 20 -2.25783
      vertex 7 20 -3.75165
      vertex 4.90567 20 -3.27786
    endloop
  endfacet
  facet normal 0 1 0
    outer loop
      vertex 7 20 -3.75165
      vertex 4.17193 20 -4.17193
      vertex 4.90567 20 -3.27786
    endloop
  endfacet
  facet normal 0 1 -0
    outer loop
      vertex 7 20 -8
      vertex 4.17193 20 -4.17193
      vertex 7 20 -3.75165
    endloop
  endfacet
  facet normal 0 1 0
    outer loop
      vertex 4.17193 20 -4.17193
      vertex 7 20 -8
      vertex 3.27786 20 -4.90567
    endloop
  endfacet
  facet normal 0 1 0
    outer loop
      vertex 1.15103 20 -5.78663
      vertex 7 20 -8
      vertex 6.89019e-15 20 -5.9
    endloop
  endfacet
  facet normal 0 1 0
    outer loop
      vertex 2.25783 20 -5.45089
      vertex 7 20 -8
      vertex 1.15103 20 -5.78663
    endloop
  endfacet
  facet normal 0 1 0
    outer loop
      vertex 3.27786 20 -4.90567
      vertex 7 20 -8
      vertex 2.25783 20 -5.45089
    endloop
  endfacet
  facet normal 0 1 -0
    outer loop
      vertex -4.90567 20 3.27786
      vertex -6.86966 20 4
      vertex -4.31303 20 4
    endloop
  endfacet
  facet normal 0 1 -0
    outer loop
      vertex -5.45089 20 2.25783
      vertex -6.86966 20 4
      vertex -4.90567 20 3.27786
    endloop
  endfacet
  facet normal 0 1 0
    outer loop
      vertex -6.86966 20 4
      vertex -5.45089 20 2.25783
      vertex -7.48013 20 2.83684
    endloop
  endfacet
  facet normal 0 1 -0
    outer loop
      vertex -5.78663 20 1.15103
      vertex -7.48013 20 2.83684
      vertex -5.45089 20 2.25783
    endloop
  endfacet
  facet normal 0 1 0
    outer loop
      vertex -5.78663 20 1.15103
      vertex -7.94167 20 0.964293
      vertex -7.48013 20 2.83684
    endloop
  endfacet
  facet normal 0 1 -0
    outer loop
      vertex -5.9 20 -4.44089e-15
      vertex -7.94167 20 0.964293
      vertex -5.78663 20 1.15103
    endloop
  endfacet
  facet normal 0 1 0
    outer loop
      vertex -5.9 20 -4.44089e-15
      vertex -7.94167 20 -0.964293
      vertex -7.94167 20 0.964293
    endloop
  endfacet
  facet normal 0 1 0
    outer loop
      vertex -5.78663 20 -1.15103
      vertex -7.94167 20 -0.964293
      vertex -5.9 20 -4.44089e-15
    endloop
  endfacet
  facet normal 0 1 0
    outer loop
      vertex -7.48013 20 -2.83684
      vertex -5.78663 20 -1.15103
      vertex -5.45089 20 -2.25783
    endloop
  endfacet
  facet normal 0 1 0
    outer loop
      vertex -5.78663 20 -1.15103
      vertex -7.48013 20 -2.83684
      vertex -7.94167 20 -0.964293
    endloop
  endfacet
  facet normal 0 1 0
    outer loop
      vertex -7 20 -3.75165
      vertex -5.45089 20 -2.25783
      vertex -4.90567 20 -3.27786
    endloop
  endfacet
  facet normal 0 1 0
    outer loop
      vertex -5.45089 20 -2.25783
      vertex -7 20 -3.75165
      vertex -7.48013 20 -2.83684
    endloop
  endfacet
  facet normal 0 1 0
    outer loop
      vertex -4.17193 20 -4.17193
      vertex -7 20 -3.75165
      vertex -4.90567 20 -3.27786
    endloop
  endfacet
  facet normal 0 1 0
    outer loop
      vertex -7 20 -8
      vertex -4.17193 20 -4.17193
      vertex -3.27786 20 -4.90567
    endloop
  endfacet
  facet normal 0 1 0
    outer loop
      vertex -7 20 -8
      vertex -3.27786 20 -4.90567
      vertex -2.25783 20 -5.45089
    endloop
  endfacet
  facet normal 0 1 0
    outer loop
      vertex -7 20 -8
      vertex 6.89019e-15 20 -5.9
      vertex 7 20 -8
    endloop
  endfacet
  facet normal 0 1 0
    outer loop
      vertex -4.17193 20 -4.17193
      vertex -7 20 -8
      vertex -7 20 -3.75165
    endloop
  endfacet
  facet normal 0 1 0
    outer loop
      vertex -1.15103 20 -5.78663
      vertex -7 20 -8
      vertex -2.25783 20 -5.45089
    endloop
  endfacet
  facet normal 0 1 0
    outer loop
      vertex 6.89019e-15 20 -5.9
      vertex -7 20 -8
      vertex -1.15103 20 -5.78663
    endloop
  endfacet
  facet normal 0.885456 0 -0.464723
    outer loop
      vertex 7.48013 7.48013 -2.83684
      vertex 7 20 -3.75165
      vertex 7.48013 20 -2.83684
    endloop
  endfacet
  facet normal 0.885456 0 -0.464723
    outer loop
      vertex 7 20 -3.75165
      vertex 7.48013 7.48013 -2.83684
      vertex 7 7 -3.75165
    endloop
  endfacet
  facet normal 0.970942 0 0.239316
    outer loop
      vertex 7.48013 20 2.83684
      vertex 7.94167 7.94167 0.964293
      vertex 7.94167 20 0.964293
    endloop
  endfacet
  facet normal 0.970942 0 0.239316
    outer loop
      vertex 7.94167 7.94167 0.964293
      vertex 7.48013 20 2.83684
      vertex 7.48013 7.48013 2.83684
    endloop
  endfacet
  facet normal 0.885456 0 0.464723
    outer loop
      vertex 6.86966 20 4
      vertex 7.48013 7.48013 2.83684
      vertex 7.48013 20 2.83684
    endloop
  endfacet
  facet normal 0.885456 0 0.464723
    outer loop
      vertex 7.48013 7.48013 2.83684
      vertex 6.86966 20 4
      vertex 6.86966 6.86966 4
    endloop
  endfacet
  facet normal 0.970942 0 -0.239316
    outer loop
      vertex 7.94167 7.94167 -0.964293
      vertex 7.48013 20 -2.83684
      vertex 7.94167 20 -0.964293
    endloop
  endfacet
  facet normal 0.970942 0 -0.239316
    outer loop
      vertex 7.48013 20 -2.83684
      vertex 7.94167 7.94167 -0.964293
      vertex 7.48013 7.48013 -2.83684
    endloop
  endfacet
  facet normal -0.970942 0 -0.239316
    outer loop
      vertex -7.48013 20 -2.83684
      vertex -7.94167 7.94167 -0.964293
      vertex -7.94167 20 -0.964293
    endloop
  endfacet
  facet normal -0.970942 0 -0.239316
    outer loop
      vertex -7.94167 7.94167 -0.964293
      vertex -7.48013 20 -2.83684
      vertex -7.48013 7.48013 -2.83684
    endloop
  endfacet
  facet normal -0.885456 0 0.464723
    outer loop
      vertex -7.48013 7.48013 2.83684
      vertex -6.86966 20 4
      vertex -7.48013 20 2.83684
    endloop
  endfacet
  facet normal -0.885456 0 0.464723
    outer loop
      vertex -6.86966 20 4
      vertex -7.48013 7.48013 2.83684
      vertex -6.86966 6.86966 4
    endloop
  endfacet
  facet normal -0.970942 0 0.239316
    outer loop
      vertex -7.94167 7.94167 0.964293
      vertex -7.48013 20 2.83684
      vertex -7.94167 20 0.964293
    endloop
  endfacet
  facet normal -0.970942 0 0.239316
    outer loop
      vertex -7.48013 20 2.83684
      vertex -7.94167 7.94167 0.964293
      vertex -7.48013 7.48013 2.83684
    endloop
  endfacet
  facet normal -0.885456 0 -0.464723
    outer loop
      vertex -7 20 -3.75165
      vertex -7.48013 7.48013 -2.83684
      vertex -7.48013 20 -2.83684
    endloop
  endfacet
  facet normal -0.885456 0 -0.464723
    outer loop
      vertex -7.48013 7.48013 -2.83684
      vertex -7 20 -3.75165
      vertex -7 7 -3.75165
    endloop
  endfacet
  facet normal 0 0 -1
    outer loop
      vertex -7 7 -8
      vertex 7 7 -8
      vertex 0 0 -8
    endloop
  endfacet
  facet normal 0 0 -1
    outer loop
      vertex 7 7 -8
      vertex -7 7 -8
      vertex 7 20 -8
    endloop
  endfacet
  facet normal -0 0 -1
    outer loop
      vertex 7 20 -8
      vertex -7 7 -8
      vertex -7 20 -8
    endloop
  endfacet
  facet normal 1 -0 0
    outer loop
      vertex 7 7 -3.75165
      vertex 7 20 -8
      vertex 7 20 -3.75165
    endloop
  endfacet
  facet normal 1 0 0
    outer loop
      vertex 7 20 -8
      vertex 7 7 -3.75165
      vertex 7 7 -8
    endloop
  endfacet
  facet normal -1 0 0
    outer loop
      vertex -7 7 -8
      vertex -7 20 -3.75165
      vertex -7 20 -8
    endloop
  endfacet
  facet normal -1 -0 0
    outer loop
      vertex -7 20 -3.75165
      vertex -7 7 -8
      vertex -7 7 -3.75165
    endloop
  endfacet
  facet normal -0.0980174 0 0.995185
    outer loop
      vertex 6.89019e-15 20 -5.9
      vertex 1.15103 1.15103 -5.78663
      vertex 1.15103 20 -5.78663
    endloop
  endfacet
  facet normal -0.0980174 3.35965e-17 0.995185
    outer loop
      vertex 1.15103 1.15103 -5.78663
      vertex 6.89019e-15 20 -5.9
      vertex 1.60436e-31 1.60436e-31 -5.9
    endloop
  endfacet
  facet normal -0.995185 -2.17642e-17 -0.0980174
    outer loop
      vertex 5.9 5.9 -1.31006e-15
      vertex 5.78663 20 1.15103
      vertex 5.9 20 -4.44089e-15
    endloop
  endfacet
  facet normal -0.995185 -0 -0.0980174
    outer loop
      vertex 5.78663 20 1.15103
      vertex 5.9 5.9 -1.31006e-15
      vertex 5.78663 5.78663 1.15103
    endloop
  endfacet
  facet normal 0.995185 2.17642e-17 0.0980174
    outer loop
      vertex -5.9 5.9 -1.31006e-15
      vertex -5.78663 20 -1.15103
      vertex -5.9 20 -4.44089e-15
    endloop
  endfacet
  facet normal 0.995185 0 0.0980174
    outer loop
      vertex -5.78663 20 -1.15103
      vertex -5.9 5.9 -1.31006e-15
      vertex -5.78663 5.78663 -1.15103
    endloop
  endfacet
  facet normal -0.77301 0 0.634393
    outer loop
      vertex 4.17193 20 -4.17193
      vertex 4.90567 4.90567 -3.27786
      vertex 4.90567 20 -3.27786
    endloop
  endfacet
  facet normal -0.77301 0 0.634393
    outer loop
      vertex 4.90567 4.90567 -3.27786
      vertex 4.17193 20 -4.17193
      vertex 4.17193 4.17193 -4.17193
    endloop
  endfacet
  facet normal -0.95694 0 0.290285
    outer loop
      vertex 5.45089 20 -2.25783
      vertex 5.78663 5.78663 -1.15103
      vertex 5.78663 20 -1.15103
    endloop
  endfacet
  facet normal -0.95694 0 0.290285
    outer loop
      vertex 5.78663 5.78663 -1.15103
      vertex 5.45089 20 -2.25783
      vertex 5.45089 5.45089 -2.25783
    endloop
  endfacet
  facet normal 0.773011 0 -0.634393
    outer loop
      vertex -4.31303 20 4
      vertex -4.90567 4.90567 3.27786
      vertex -4.90567 20 3.27786
    endloop
  endfacet
  facet normal 0.773011 0 -0.634393
    outer loop
      vertex -4.90567 4.90567 3.27786
      vertex -4.31303 20 4
      vertex -4.31303 4.31303 4
    endloop
  endfacet
  facet normal 0.634393 -0 0.77301
    outer loop
      vertex -4.17193 4.17193 -4.17193
      vertex -3.27786 20 -4.90567
      vertex -4.17193 20 -4.17193
    endloop
  endfacet
  facet normal 0.634393 0 0.77301
    outer loop
      vertex -3.27786 20 -4.90567
      vertex -4.17193 4.17193 -4.17193
      vertex -3.27786 3.27786 -4.90567
    endloop
  endfacet
  facet normal -0.881921 0 -0.471397
    outer loop
      vertex 5.45089 5.45089 2.25783
      vertex 4.90567 20 3.27786
      vertex 5.45089 20 2.25783
    endloop
  endfacet
  facet normal -0.881921 -0 -0.471397
    outer loop
      vertex 4.90567 20 3.27786
      vertex 5.45089 5.45089 2.25783
      vertex 4.90567 4.90567 3.27786
    endloop
  endfacet
  facet normal -0.95694 0 -0.290285
    outer loop
      vertex 5.78663 5.78663 1.15103
      vertex 5.45089 20 2.25783
      vertex 5.78663 20 1.15103
    endloop
  endfacet
  facet normal -0.95694 -0 -0.290285
    outer loop
      vertex 5.45089 20 2.25783
      vertex 5.78663 5.78663 1.15103
      vertex 5.45089 5.45089 2.25783
    endloop
  endfacet
  facet normal -0.773011 0 -0.634393
    outer loop
      vertex 4.90567 4.90567 3.27786
      vertex 4.31303 20 4
      vertex 4.90567 20 3.27786
    endloop
  endfacet
  facet normal -0.773011 -0 -0.634393
    outer loop
      vertex 4.31303 20 4
      vertex 4.90567 4.90567 3.27786
      vertex 4.31303 4.31303 4
    endloop
  endfacet
  facet normal -0.471397 0 0.881921
    outer loop
      vertex 2.25783 20 -5.45089
      vertex 3.27786 3.27786 -4.90567
      vertex 3.27786 20 -4.90567
    endloop
  endfacet
  facet normal -0.471397 0 0.881921
    outer loop
      vertex 3.27786 3.27786 -4.90567
      vertex 2.25783 20 -5.45089
      vertex 2.25783 2.25783 -5.45089
    endloop
  endfacet
  facet normal -0.634393 0 0.77301
    outer loop
      vertex 3.27786 20 -4.90567
      vertex 4.17193 4.17193 -4.17193
      vertex 4.17193 20 -4.17193
    endloop
  endfacet
  facet normal -0.634393 0 0.77301
    outer loop
      vertex 4.17193 4.17193 -4.17193
      vertex 3.27786 20 -4.90567
      vertex 3.27786 3.27786 -4.90567
    endloop
  endfacet
  facet normal -0.290285 0 0.95694
    outer loop
      vertex 1.15103 20 -5.78663
      vertex 2.25783 2.25783 -5.45089
      vertex 2.25783 20 -5.45089
    endloop
  endfacet
  facet normal -0.290285 0 0.95694
    outer loop
      vertex 2.25783 2.25783 -5.45089
      vertex 1.15103 20 -5.78663
      vertex 1.15103 1.15103 -5.78663
    endloop
  endfacet
  facet normal -0.881921 0 0.471397
    outer loop
      vertex 4.90567 20 -3.27786
      vertex 5.45089 5.45089 -2.25783
      vertex 5.45089 20 -2.25783
    endloop
  endfacet
  facet normal -0.881921 0 0.471397
    outer loop
      vertex 5.45089 5.45089 -2.25783
      vertex 4.90567 20 -3.27786
      vertex 4.90567 4.90567 -3.27786
    endloop
  endfacet
  facet normal -0.995185 2.21254e-17 0.0980174
    outer loop
      vertex 5.78663 20 -1.15103
      vertex 5.9 5.9 -1.31006e-15
      vertex 5.9 20 -4.44089e-15
    endloop
  endfacet
  facet normal -0.995185 0 0.0980174
    outer loop
      vertex 5.9 5.9 -1.31006e-15
      vertex 5.78663 20 -1.15103
      vertex 5.78663 5.78663 -1.15103
    endloop
  endfacet
  facet normal 0.995185 -2.21254e-17 -0.0980174
    outer loop
      vertex -5.78663 20 1.15103
      vertex -5.9 5.9 -1.31006e-15
      vertex -5.9 20 -4.44089e-15
    endloop
  endfacet
  facet normal 0.995185 0 -0.0980174
    outer loop
      vertex -5.9 5.9 -1.31006e-15
      vertex -5.78663 20 1.15103
      vertex -5.78663 5.78663 1.15103
    endloop
  endfacet
  facet normal 0.881921 0 -0.471397
    outer loop
      vertex -4.90567 20 3.27786
      vertex -5.45089 5.45089 2.25783
      vertex -5.45089 20 2.25783
    endloop
  endfacet
  facet normal 0.881921 0 -0.471397
    outer loop
      vertex -5.45089 5.45089 2.25783
      vertex -4.90567 20 3.27786
      vertex -4.90567 4.90567 3.27786
    endloop
  endfacet
  facet normal 0.77301 -0 0.634393
    outer loop
      vertex -4.90567 4.90567 -3.27786
      vertex -4.17193 20 -4.17193
      vertex -4.90567 20 -3.27786
    endloop
  endfacet
  facet normal 0.77301 0 0.634393
    outer loop
      vertex -4.17193 20 -4.17193
      vertex -4.90567 4.90567 -3.27786
      vertex -4.17193 4.17193 -4.17193
    endloop
  endfacet
  facet normal 0.95694 -0 0.290285
    outer loop
      vertex -5.78663 5.78663 -1.15103
      vertex -5.45089 20 -2.25783
      vertex -5.78663 20 -1.15103
    endloop
  endfacet
  facet normal 0.95694 0 0.290285
    outer loop
      vertex -5.45089 20 -2.25783
      vertex -5.78663 5.78663 -1.15103
      vertex -5.45089 5.45089 -2.25783
    endloop
  endfacet
  facet normal 0.0980174 -3.35965e-17 0.995185
    outer loop
      vertex -1.15103 1.15103 -5.78663
      vertex 1.60436e-31 1.60436e-31 -5.9
      vertex 6.89019e-15 20 -5.9
    endloop
  endfacet
  facet normal 0.0980174 -0 0.995185
    outer loop
      vertex -1.15103 1.15103 -5.78663
      vertex 6.89019e-15 20 -5.9
      vertex -1.15103 20 -5.78663
    endloop
  endfacet
  facet normal 0.0491268 -0.0491268 0.997584
    outer loop
      vertex 1.60436e-31 1.60436e-31 -5.9
      vertex -1.15103 1.15103 -5.78663
      vertex 0 0 -5.9
    endloop
  endfacet
  facet normal 0.471397 -0 0.881921
    outer loop
      vertex -3.27786 3.27786 -4.90567
      vertex -2.25783 20 -5.45089
      vertex -3.27786 20 -4.90567
    endloop
  endfacet
  facet normal 0.471397 0 0.881921
    outer loop
      vertex -2.25783 20 -5.45089
      vertex -3.27786 3.27786 -4.90567
      vertex -2.25783 2.25783 -5.45089
    endloop
  endfacet
  facet normal 0.290285 -0 0.95694
    outer loop
      vertex -2.25783 2.25783 -5.45089
      vertex -1.15103 20 -5.78663
      vertex -2.25783 20 -5.45089
    endloop
  endfacet
  facet normal 0.290285 0 0.95694
    outer loop
      vertex -1.15103 20 -5.78663
      vertex -2.25783 2.25783 -5.45089
      vertex -1.15103 1.15103 -5.78663
    endloop
  endfacet
  facet normal 0.95694 0 -0.290285
    outer loop
      vertex -5.45089 20 2.25783
      vertex -5.78663 5.78663 1.15103
      vertex -5.78663 20 1.15103
    endloop
  endfacet
  facet normal 0.95694 0 -0.290285
    outer loop
      vertex -5.78663 5.78663 1.15103
      vertex -5.45089 20 2.25783
      vertex -5.45089 5.45089 2.25783
    endloop
  endfacet
  facet normal 0.881921 -0 0.471397
    outer loop
      vertex -5.45089 5.45089 -2.25783
      vertex -4.90567 20 -3.27786
      vertex -5.45089 20 -2.25783
    endloop
  endfacet
  facet normal 0.881921 0 0.471397
    outer loop
      vertex -4.90567 20 -3.27786
      vertex -5.45089 5.45089 -2.25783
      vertex -4.90567 4.90567 -3.27786
    endloop
  endfacet
  facet normal 0 0 1
    outer loop
      vertex -6.86966 6.86966 4
      vertex -4.31303 20 4
      vertex -6.86966 20 4
    endloop
  endfacet
  facet normal 0 0 1
    outer loop
      vertex -4.31303 20 4
      vertex -6.86966 6.86966 4
      vertex -4.31303 4.31303 4
    endloop
  endfacet
  facet normal -0 0 1
    outer loop
      vertex 4.31303 20 4
      vertex 6.86966 6.86966 4
      vertex 6.86966 20 4
    endloop
  endfacet
  facet normal 0 0 1
    outer loop
      vertex 6.86966 6.86966 4
      vertex 4.31303 20 4
      vertex 4.31303 4.31303 4
    endloop
  endfacet
endsolid OpenSCAD_Model
